<svg width="24" height="24" viewBox="0 0 24 24" fill="none" xmlns="http://www.w3.org/2000/svg">
<g clip-path="url(#clip0)">
<rect width="24" height="24" rx="12" fill="#D81918"/>
<path d="M8.19927 6.3997L9.15188 9.4292L12.3791 9.39085L9.75456 11.2507L10.7849 14.2611L8.19927 12.3628L5.61361 14.2611L6.64399 11.2507L4 9.39085L7.22722 9.4292L8.19927 6.3997ZM16.209 5L16.0923 6.09292L17.1033 6.51475L16.034 6.74484L15.9368 7.83776L15.3925 6.87906L14.3038 7.12832L15.0425 6.32301L14.4787 5.38348L15.4897 5.82448L16.209 5ZM19.6695 8.22124L19.1446 9.17994L19.9028 9.96608L18.8141 9.75516L18.3086 10.7139L18.1725 9.64012L17.0838 9.44838L18.0948 8.9882L17.9198 7.91445L18.678 8.70059L19.6695 8.22124ZM20 13.1873L19.1057 13.8392L19.4751 14.8555L18.5808 14.2227L17.706 14.8938L18.0365 13.8584L17.1227 13.2448L18.2309 13.2257L18.5419 12.1711L18.8919 13.2065L20 13.1873ZM16.1507 15.1814L16.0729 16.2743L17.1227 16.6578L16.0535 16.9263L15.9951 18L15.4119 17.0796L14.3426 17.3673L15.0425 16.5428L14.4399 15.6224L15.4702 16.0251L16.1507 15.1814Z" fill="#E5E04F"/>
</g>
<defs>
<clipPath id="clip0">
<rect width="24" height="24" rx="12" fill="white"/>
</clipPath>
</defs>
</svg>
