<svg width="24" height="24" viewBox="0 0 24 24" fill="none" xmlns="http://www.w3.org/2000/svg">
<g clip-path="url(#clip0)">
<rect width="24" height="24" rx="12" fill="#D81918"/>
<path d="M12.1626 11.937L12.348 12.1182L12.1626 12.2957L11.9846 12.1182L12.1626 11.937Z" fill="#FF0000"/>
<path d="M12.1626 12.1185C10.4532 11.4271 9.6375 9.27144 10.3531 7.5706C10.7424 6.63884 12.1848 5.35581 13.9534 5.79951C13.2712 6.14337 12.8114 6.61295 13.2564 7.28589C13.7458 8.02539 13.5159 9.13463 12.5667 9.58203C11.8288 9.92959 11.18 11.2163 12.1626 12.1185Z" fill="white"/>
<path d="M12.1366 12.1516C11.777 11.8595 11.2023 11.5452 11.0576 10.3768L11.0354 9.9997C11.0354 9.05315 11.4952 8.51332 11.4989 8.50962L11.5582 8.50223L11.5619 8.56138C11.5619 8.56138 11.4507 8.6871 11.3394 8.93113C11.2282 9.17517 11.117 9.53752 11.117 9.99601L11.1392 10.3584C11.2838 11.5046 11.8178 11.7782 12.1885 12.0777L12.196 12.1368L12.1626 12.1516H12.1366ZM11.625 7.50391L11.9179 7.76643L12.259 7.56676L12.0996 7.92542L12.3925 8.18794L12.0032 8.15096L11.8437 8.50962L11.7584 8.12878L11.3691 8.08811L11.7065 7.88844L11.625 7.50391Z" fill="#FF0000"/>
<path d="M12.1626 12.1185C12.2961 10.2808 14.0981 8.84253 15.9335 8.99782C16.9383 9.08286 18.6032 10.059 18.7218 11.8819C18.1879 11.3346 17.5946 11.0425 17.0941 11.6748C16.5416 12.3662 15.4144 12.4882 14.6988 11.7229C14.1463 11.1239 12.7188 10.902 12.1626 12.1185Z" fill="white"/>
<path d="M12.1255 12.0997C12.2924 11.6671 12.4147 11.0201 13.4863 10.5246L13.8349 10.3878C14.7359 10.0994 15.3922 10.3693 15.3959 10.373L15.4181 10.4285L15.3625 10.4507C15.3625 10.4507 15.2068 10.3878 14.9398 10.3545C14.6728 10.3249 14.2983 10.3286 13.8571 10.4691L13.5197 10.6023C12.4741 11.0903 12.3777 11.6819 12.2034 12.1293L12.1478 12.1552L12.1218 12.1293L12.1255 12.0997ZM16.3859 10.1881L16.2301 10.5468L16.5231 10.8093L16.1337 10.7686L15.9743 11.1273L15.8927 10.7428L15.4997 10.7058L15.8408 10.5061L15.7555 10.1216L16.0485 10.3841L16.3859 10.1881Z" fill="#FF0000"/>
<path d="M12.1626 12.1184C13.9535 11.6821 15.8742 12.9541 16.2895 14.7511C16.5156 15.7346 16.0929 17.6166 14.3984 18.2895C14.7544 17.6129 14.8508 16.9621 14.0981 16.6774C13.2712 16.3632 12.8078 15.3279 13.3195 14.4109C13.7199 13.6936 13.49 12.2737 12.1626 12.1184Z" fill="white"/>
<path d="M12.1663 12.0742C12.6298 12.1001 13.2824 12.0151 14.0796 12.884L14.3169 13.1724C14.873 13.9414 14.8137 14.6477 14.8137 14.6551L14.7655 14.692L14.7284 14.6477C14.7284 14.6477 14.7396 14.4776 14.6877 14.2151C14.6357 13.9525 14.5134 13.5939 14.2464 13.2204L14.0165 12.9394C13.2305 12.0927 12.6372 12.1851 12.1589 12.1556L12.1181 12.1112L12.1366 12.0779L12.1663 12.0742ZM15.2957 15.5462L14.9064 15.5055L14.747 15.8641L14.6654 15.4796L14.2724 15.4389L14.6135 15.243L14.5319 14.8584L14.8248 15.1209L15.166 14.9213L15.0065 15.2799L15.2957 15.5462Z" fill="#FF0000"/>
<path d="M12.1626 12.1182C13.1303 13.6859 12.5074 15.9081 10.9242 16.8546C10.0602 17.3723 8.13955 17.5498 6.97528 16.1447C7.72798 16.2741 8.38056 16.1669 8.41764 15.3609C8.46214 14.4809 9.30753 13.7192 10.3346 13.9225C11.1392 14.0778 12.4221 13.4271 12.1626 12.1182Z" fill="white"/>
<path d="M12.2071 12.1073C12.3257 12.5584 12.6038 13.15 12.0217 14.1779L11.8177 14.4922C11.2578 15.2538 10.5645 15.4165 10.5608 15.4165L10.5089 15.3833L10.5422 15.3315C10.5422 15.3315 10.7054 15.2945 10.939 15.1614C11.1726 15.0283 11.4766 14.8064 11.751 14.4367L11.9475 14.1298C12.5148 13.1241 12.2441 12.5843 12.1255 12.1221L12.1589 12.0703L12.1922 12.0777L12.2071 12.1073ZM9.86369 16.1486L9.78212 15.7641L9.39279 15.7234L9.73392 15.5275L9.64863 15.1429L9.94156 15.4054L10.2827 15.2095L10.1232 15.5681L10.4125 15.8343L10.0231 15.79L9.86369 16.1486Z" fill="#FF0000"/>
<path d="M12.1626 12.1185C10.9649 13.5198 8.66236 13.6048 7.27561 12.3884C6.5155 11.7228 5.7591 9.95173 6.74168 8.41357C6.84921 9.17156 7.14955 9.75576 7.9282 9.5487C8.78101 9.31946 9.76359 9.89257 9.88595 10.9316C9.98236 11.7413 10.9983 12.7618 12.1626 12.1185Z" fill="white"/>
<path d="M12.1885 12.1517C11.7992 12.3994 11.3172 12.8505 10.1603 12.6102L9.79697 12.5141C8.89966 12.2146 8.53259 11.6082 8.52888 11.6045L8.54371 11.5453L8.60304 11.5601C8.60304 11.5601 8.68832 11.7043 8.88483 11.8855C9.08135 12.0667 9.3891 12.2885 9.82292 12.4364L10.1752 12.5289C11.3061 12.7581 11.7362 12.3366 12.144 12.0815L12.2034 12.0963L12.2071 12.1332L12.1885 12.1517ZM7.62045 11.1645L7.96158 10.9685L7.88 10.584L8.17292 10.8465L8.51405 10.6505L8.3509 11.0092L8.64382 11.2754L8.2545 11.231L8.09135 11.5934L8.01349 11.2052L7.62045 11.1645Z" fill="#FF0000"/>
</g>
<defs>
<clipPath id="clip0">
<rect width="24" height="24" rx="12" fill="white"/>
</clipPath>
</defs>
</svg>
