<svg width="24" height="24" viewBox="0 0 24 24" fill="none" xmlns="http://www.w3.org/2000/svg">
<rect width="24" height="24" rx="12" fill="url(#paint0_linear)"/>
<path fill-rule="evenodd" clip-rule="evenodd" d="M7.8 9.22556V16.1729H13.88V9.22556H7.8ZM7.53333 8.39849C7.23878 8.39849 7 8.64535 7 8.94987V16.4486C7 16.7531 7.23878 17 7.53333 17H14.1467C14.4412 17 14.68 16.7531 14.68 16.4486V8.94987C14.68 8.64535 14.4412 8.39849 14.1467 8.39849H7.53333Z" fill="white"/>
<path fill-rule="evenodd" clip-rule="evenodd" d="M8.52 6.96491C8.52 6.43201 8.93787 6 9.45333 6H16.0667C16.5821 6 17 6.43201 17 6.96491V14.4637C17 14.9966 16.5821 15.4286 16.0667 15.4286H14.04V14.6015H16.0667C16.1403 14.6015 16.2 14.5398 16.2 14.4637V6.96491C16.2 6.88878 16.1403 6.82707 16.0667 6.82707H9.45333C9.37969 6.82707 9.32 6.88878 9.32 6.96491V9.06015H8.52V6.96491Z" fill="white"/>
<path fill-rule="evenodd" clip-rule="evenodd" d="M7.8 9.22556V16.1729H13.88V9.22556H7.8ZM7.53333 8.39849C7.23878 8.39849 7 8.64535 7 8.94987V16.4486C7 16.7531 7.23878 17 7.53333 17H14.1467C14.4412 17 14.68 16.7531 14.68 16.4486V8.94987C14.68 8.64535 14.4412 8.39849 14.1467 8.39849H7.53333Z" stroke="white" stroke-width="0.5"/>
<path fill-rule="evenodd" clip-rule="evenodd" d="M8.52 6.96491C8.52 6.43201 8.93787 6 9.45333 6H16.0667C16.5821 6 17 6.43201 17 6.96491V14.4637C17 14.9966 16.5821 15.4286 16.0667 15.4286H14.04V14.6015H16.0667C16.1403 14.6015 16.2 14.5398 16.2 14.4637V6.96491C16.2 6.88878 16.1403 6.82707 16.0667 6.82707H9.45333C9.37969 6.82707 9.32 6.88878 9.32 6.96491V9.06015H8.52V6.96491Z" stroke="white" stroke-width="0.5"/>
<defs>
<linearGradient id="paint0_linear" x1="12" y1="0" x2="12" y2="24" gradientUnits="userSpaceOnUse">
<stop stop-color="#FF6A70"/>
<stop offset="1" stop-color="#E23137"/>
</linearGradient>
</defs>
</svg>
