<svg width="30" height="24" viewBox="0 0 30 24" fill="none" xmlns="http://www.w3.org/2000/svg">
<g clip-path="url(#clip0)">
<path d="M7.86847 6.42676H7.50332L6.82275 9.23304H8.54818L7.86847 6.42676ZM21.6316 12.0393C21.9993 12.8528 22.4879 13.511 23.0288 14.0716C23.5688 13.511 24.1148 12.8528 24.4825 12.0393H21.6316Z" fill="white"/>
<path d="M7.86847 6.42676H7.50332L6.82275 9.23304H8.54818L7.86847 6.42676ZM21.6316 12.0393C21.9993 12.8528 22.4879 13.511 23.0288 14.0716C23.5688 13.511 24.1148 12.8528 24.4825 12.0393H21.6316Z" fill="white"/>
<path d="M7.86749 6.42676H7.50235L6.82178 9.23304H8.54721L7.86663 6.42676H7.86749Z" fill="#CA1A20"/>
<path d="M26.4888 4.27625H15.922L18.1248 18.852C18.1491 19.1486 18.1049 19.4468 17.9956 19.7237C17.8864 20.0006 17.7151 20.2486 17.4948 20.4488L13.7637 23.9648H26.4888C27.8962 23.9648 29.0405 23.0203 29.0405 21.8597V6.42682C29.0405 5.26625 27.8954 4.27539 26.4888 4.27539V4.27625ZM26.4888 12.0394H26.2608C25.7774 13.3191 25.0094 14.322 24.2122 15.1114C24.8362 15.5828 25.5048 15.9685 26.1691 16.4022C26.536 16.644 26.5951 17.0854 26.3011 17.388C26.0088 17.6905 25.4714 17.7394 25.1054 17.4968C24.3837 17.0271 23.7065 16.6337 23.0285 16.1211C22.3514 16.6337 21.73 17.0271 21.0074 17.4968C20.6422 17.7394 20.1048 17.6905 19.8117 17.388C19.5177 17.0854 19.5777 16.644 19.9437 16.4022C20.6088 15.9694 21.2208 15.5828 21.8448 15.1114C20.9656 14.2441 20.2855 13.1958 19.852 12.0394H19.6248C19.1542 12.0394 18.7737 11.7257 18.7737 11.3374C18.7737 10.95 19.1551 10.6362 19.6248 10.6362H22.1774V9.93425C22.1774 9.54682 22.558 9.23311 23.0285 9.23311C23.4982 9.23311 23.8788 9.54682 23.8788 9.93425V10.6362H26.488C26.9585 10.6362 27.3391 10.95 27.3391 11.3374C27.3391 11.7248 26.9585 12.0394 26.4888 12.0394Z" fill="white"/>
<path d="M13.8489 1.86337C13.6903 0.812508 12.6009 0.0205084 11.3169 0.0205084H2.55257C1.14514 0.0196513 0 0.962508 0 2.12394V17.6502C0 18.8108 1.14514 19.7545 2.55257 19.7545H15.9694C16.218 19.5205 16.4263 19.3739 16.4349 19.0688C16.4374 18.9916 13.8609 1.93879 13.8489 1.86251V1.86337ZM10.4331 13.4279C9.98229 13.5051 9.52457 13.2634 9.432 12.8785L8.88857 10.6362H6.48257L5.93914 12.8785C5.84743 13.2574 5.40429 13.5068 4.938 13.4279C4.47771 13.3525 4.17857 12.9822 4.27114 12.6025L5.97257 5.58851C6.05229 5.26108 6.40114 5.02451 6.80657 5.02451H8.56457C8.97 5.02451 9.31886 5.26108 9.39943 5.58851L11.1009 12.6034C11.1926 12.9839 10.8934 13.3534 10.4331 13.4288V13.4279ZM9.94114 21.1585L10.0869 22.1211C10.1846 22.7656 10.704 23.4222 11.5586 23.7514L14.4146 21.1585H9.94029H9.94114Z" fill="#CA1A20"/>
<path d="M9.94104 21.1587L10.0868 22.1213C10.1845 22.7658 10.7039 23.4224 11.5585 23.7515L14.4145 21.1587H9.94019H9.94104Z" fill="white"/>
</g>
<defs>
<clipPath id="clip0">
<rect width="29.1328" height="24" fill="white"/>
</clipPath>
</defs>
</svg>
