<svg width="132" height="35" viewBox="0 0 132 35" fill="none" xmlns="http://www.w3.org/2000/svg">
<path d="M43.24 14.648V16.44H46.968V19.16H43.24V23H40.056V11.896H47.304V14.648H43.24ZM54.2613 23.16C53.4826 23.16 52.7839 23.1013 52.1652 22.984C51.5466 22.8667 51.0239 22.664 50.5972 22.376C50.1706 22.0773 49.8399 21.6773 49.6052 21.176C49.3812 20.664 49.2692 20.0187 49.2692 19.24V11.896H52.4532V19.016C52.4532 19.1973 52.4746 19.3733 52.5172 19.544C52.5599 19.7147 52.6452 19.8693 52.7732 20.008C52.9119 20.136 53.0986 20.2427 53.3332 20.328C53.5679 20.4027 53.8772 20.44 54.2613 20.44C54.6559 20.44 54.9706 20.3973 55.2052 20.312C55.4506 20.216 55.6372 20.0987 55.7652 19.96C55.9039 19.8107 55.9946 19.656 56.0373 19.496C56.0799 19.3253 56.1012 19.1653 56.1012 19.016V11.896H59.2692V19.24C59.2692 19.944 59.1519 20.5467 58.9172 21.048C58.6933 21.5493 58.3626 21.9547 57.9253 22.264C57.4986 22.5733 56.9759 22.8027 56.3573 22.952C55.7386 23.0907 55.0399 23.16 54.2613 23.16ZM64.8205 23.16C64.2018 23.16 63.6098 23.1227 63.0445 23.048C62.4898 22.9733 62.0152 22.888 61.6205 22.792V20.056C61.8018 20.1093 62.0152 20.1627 62.2605 20.216C62.5058 20.2693 62.7618 20.3173 63.0285 20.36C63.3058 20.392 63.5832 20.4187 63.8605 20.44C64.1378 20.4613 64.3992 20.472 64.6445 20.472C64.9752 20.472 65.2365 20.456 65.4285 20.424C65.6312 20.392 65.7858 20.344 65.8925 20.28C65.9992 20.2053 66.0685 20.1093 66.1005 19.992C66.1325 19.8747 66.1485 19.7307 66.1485 19.56C66.1485 19.4427 66.1272 19.336 66.0845 19.24C66.0525 19.144 65.9778 19.0587 65.8605 18.984C65.7538 18.8987 65.5938 18.8187 65.3805 18.744C65.1778 18.6587 64.9005 18.5733 64.5485 18.488C63.9405 18.3493 63.4392 18.1947 63.0445 18.024C62.6605 17.8427 62.3565 17.624 62.1325 17.368C61.9085 17.112 61.7538 16.8133 61.6685 16.472C61.5832 16.12 61.5405 15.6933 61.5405 15.192C61.5405 14.5413 61.6418 13.9973 61.8445 13.56C62.0472 13.112 62.3352 12.7547 62.7085 12.488C63.0925 12.2107 63.5512 12.0187 64.0845 11.912C64.6285 11.7947 65.2312 11.736 65.8925 11.736C66.5858 11.736 67.1618 11.7787 67.6205 11.864C68.0792 11.9387 68.4632 12.0293 68.7725 12.136V14.68C68.6552 14.6373 68.4845 14.5947 68.2605 14.552C68.0472 14.5093 67.8125 14.472 67.5565 14.44C67.3005 14.3973 67.0392 14.3653 66.7725 14.344C66.5058 14.312 66.2605 14.296 66.0365 14.296C65.5245 14.296 65.1565 14.36 64.9325 14.488C64.7192 14.6053 64.6125 14.7973 64.6125 15.064C64.6125 15.192 64.6285 15.2987 64.6605 15.384C64.7032 15.4693 64.7832 15.5493 64.9005 15.624C65.0178 15.688 65.1832 15.752 65.3965 15.816C65.6098 15.88 65.8872 15.9547 66.2285 16.04C66.9218 16.2213 67.4712 16.4187 67.8765 16.632C68.2925 16.8453 68.6072 17.0907 68.8205 17.368C69.0338 17.6453 69.1725 17.9707 69.2365 18.344C69.3005 18.7173 69.3325 19.1547 69.3325 19.656C69.3325 20.2107 69.2578 20.7067 69.1085 21.144C68.9592 21.5707 68.7085 21.9333 68.3565 22.232C68.0152 22.5307 67.5565 22.76 66.9805 22.92C66.4045 23.08 65.6845 23.16 64.8205 23.16ZM76.6431 23.16C75.8218 23.16 75.0858 23.08 74.4351 22.92C73.7845 22.7493 73.2351 22.4507 72.7871 22.024C72.3391 21.5973 71.9978 21.016 71.7631 20.28C71.5285 19.5333 71.4111 18.5893 71.4111 17.448C71.4111 16.3067 71.5285 15.368 71.7631 14.632C71.9978 13.896 72.3391 13.3147 72.7871 12.888C73.2351 12.4507 73.7845 12.152 74.4351 11.992C75.0858 11.8213 75.8218 11.736 76.6431 11.736C77.4751 11.736 78.2111 11.8213 78.8511 11.992C79.5018 12.152 80.0511 12.4507 80.4991 12.888C80.9471 13.3147 81.2885 13.896 81.5231 14.632C81.7578 15.368 81.8751 16.3067 81.8751 17.448C81.8751 18.5893 81.7578 19.5333 81.5231 20.28C81.2885 21.016 80.9471 21.5973 80.4991 22.024C80.0511 22.4507 79.5018 22.7493 78.8511 22.92C78.2111 23.08 77.4751 23.16 76.6431 23.16ZM76.6431 20.536C77.0271 20.536 77.3365 20.488 77.5711 20.392C77.8165 20.296 78.0085 20.1307 78.1471 19.896C78.2965 19.6507 78.3978 19.3307 78.4511 18.936C78.5045 18.5413 78.5311 18.0453 78.5311 17.448C78.5311 16.84 78.5045 16.3387 78.4511 15.944C78.3978 15.5387 78.2965 15.2187 78.1471 14.984C78.0085 14.7387 77.8165 14.568 77.5711 14.472C77.3365 14.3653 77.0271 14.312 76.6431 14.312C76.2591 14.312 75.9445 14.3653 75.6991 14.472C75.4645 14.568 75.2778 14.7387 75.1391 14.984C75.0005 15.2187 74.9045 15.5387 74.8511 15.944C74.7978 16.3387 74.7711 16.84 74.7711 17.448C74.7711 18.0453 74.7978 18.5413 74.8511 18.936C74.9045 19.3307 75.0005 19.6507 75.1391 19.896C75.2778 20.1307 75.4645 20.296 75.6991 20.392C75.9445 20.488 76.2591 20.536 76.6431 20.536ZM87.1711 23.16C86.5525 23.16 85.9605 23.1227 85.3951 23.048C84.8405 22.9733 84.3658 22.888 83.9711 22.792V20.056C84.1525 20.1093 84.3658 20.1627 84.6111 20.216C84.8565 20.2693 85.1125 20.3173 85.3791 20.36C85.6565 20.392 85.9338 20.4187 86.2111 20.44C86.4885 20.4613 86.7498 20.472 86.9951 20.472C87.3258 20.472 87.5871 20.456 87.7791 20.424C87.9818 20.392 88.1365 20.344 88.2431 20.28C88.3498 20.2053 88.4191 20.1093 88.4511 19.992C88.4831 19.8747 88.4991 19.7307 88.4991 19.56C88.4991 19.4427 88.4778 19.336 88.4351 19.24C88.4031 19.144 88.3285 19.0587 88.2111 18.984C88.1045 18.8987 87.9445 18.8187 87.7311 18.744C87.5285 18.6587 87.2511 18.5733 86.8991 18.488C86.2911 18.3493 85.7898 18.1947 85.3951 18.024C85.0111 17.8427 84.7071 17.624 84.4831 17.368C84.2591 17.112 84.1045 16.8133 84.0191 16.472C83.9338 16.12 83.8911 15.6933 83.8911 15.192C83.8911 14.5413 83.9925 13.9973 84.1951 13.56C84.3978 13.112 84.6858 12.7547 85.0591 12.488C85.4431 12.2107 85.9018 12.0187 86.4351 11.912C86.9791 11.7947 87.5818 11.736 88.2431 11.736C88.9365 11.736 89.5125 11.7787 89.9711 11.864C90.4298 11.9387 90.8138 12.0293 91.1231 12.136V14.68C91.0058 14.6373 90.8351 14.5947 90.6111 14.552C90.3978 14.5093 90.1631 14.472 89.9071 14.44C89.6511 14.3973 89.3898 14.3653 89.1231 14.344C88.8565 14.312 88.6111 14.296 88.3871 14.296C87.8751 14.296 87.5071 14.36 87.2831 14.488C87.0698 14.6053 86.9631 14.7973 86.9631 15.064C86.9631 15.192 86.9791 15.2987 87.0111 15.384C87.0538 15.4693 87.1338 15.5493 87.2511 15.624C87.3685 15.688 87.5338 15.752 87.7471 15.816C87.9605 15.88 88.2378 15.9547 88.5791 16.04C89.2725 16.2213 89.8218 16.4187 90.2271 16.632C90.6431 16.8453 90.9578 17.0907 91.1711 17.368C91.3845 17.6453 91.5231 17.9707 91.5871 18.344C91.6511 18.7173 91.6831 19.1547 91.6831 19.656C91.6831 20.2107 91.6085 20.7067 91.4591 21.144C91.3098 21.5707 91.0591 21.9333 90.7071 22.232C90.3658 22.5307 89.9071 22.76 89.3311 22.92C88.7551 23.08 88.0351 23.16 87.1711 23.16ZM99.3618 23.16C98.5084 23.16 97.7351 23.08 97.0418 22.92C96.3591 22.76 95.7724 22.472 95.2818 22.056C94.8018 21.6293 94.4284 21.048 94.1618 20.312C93.8951 19.5653 93.7618 18.6107 93.7618 17.448C93.7618 16.3813 93.8898 15.4853 94.1458 14.76C94.4018 14.024 94.7644 13.432 95.2338 12.984C95.7138 12.536 96.2898 12.216 96.9618 12.024C97.6338 11.832 98.3858 11.736 99.2178 11.736C99.7618 11.736 100.268 11.7733 100.738 11.848C101.207 11.912 101.612 12.008 101.954 12.136V14.84C101.207 14.5627 100.38 14.424 99.4738 14.424C99.0684 14.424 98.7271 14.4773 98.4498 14.584C98.1724 14.68 97.9431 14.8453 97.7618 15.08C97.5804 15.3147 97.4471 15.6293 97.3618 16.024C97.2871 16.408 97.2498 16.8827 97.2498 17.448C97.2498 18.0453 97.2924 18.536 97.3778 18.92C97.4738 19.304 97.6124 19.608 97.7938 19.832C97.9858 20.0453 98.2204 20.1947 98.4978 20.28C98.7858 20.3653 99.1271 20.408 99.5218 20.408C99.9378 20.408 100.359 20.3813 100.786 20.328C101.223 20.264 101.655 20.1573 102.082 20.008V22.712C101.74 22.84 101.33 22.9467 100.85 23.032C100.37 23.1173 99.8738 23.16 99.3618 23.16ZM111.401 20.664H107.241L106.457 23H103.129L107.209 11.896H111.513L115.561 23H112.169L111.401 20.664ZM110.569 18.104L109.433 14.632H109.241L108.089 18.104H110.569ZM117.01 11.896H121.81L124.114 18.856H124.21V11.896H127.314V23H122.882L120.242 15.576H120.146V23H117.01V11.896Z" fill="url(#paint0_linear)"/>
<path d="M19.2623 28.4485C19.2623 27.8565 18.8465 27.3619 18.2918 27.2425L18.2918 19.8543C18.5036 19.9139 18.6996 20.0428 18.8426 20.2409L24.7329 28.3991C25.651 29.6707 25.9035 31.3094 25.3535 32.5031L19.2445 28.6584C19.2562 28.5902 19.2623 28.5201 19.2623 28.4485Z" fill="#DF3339"/>
<path d="M29.4501 19.5494C28.8887 19.3664 28.2912 19.6102 28.0065 20.1024L21.0004 17.8193C21.1224 17.6356 21.3052 17.4886 21.5372 17.4134L31.0937 14.316C32.5833 13.8332 34.2152 14.0988 35.1772 14.9923L29.6436 19.6311C29.5825 19.5989 29.5179 19.5715 29.4501 19.5494Z" fill="#DF3339"/>
<path d="M23.8232 7.28261C23.4762 7.76155 23.5228 8.40681 23.9015 8.83043L19.5715 14.8076C19.435 14.6345 19.3521 14.4147 19.3524 14.1701L19.3684 4.09767C19.3709 2.52764 20.127 1.05311 21.2715 0.411621L23.9605 7.12326C23.9111 7.17158 23.8651 7.22473 23.8232 7.28261Z" fill="#DF3339"/>
<path d="M3.2915 9.33961C3.63959 10.5303 4.75152 11.5884 6.14628 12.0413L15.7187 15.1498C15.9291 15.2181 16.1411 15.2147 16.3325 15.1559L11.9983 9.1729C11.4993 9.3474 10.9252 9.18359 10.5986 8.73275C10.5367 8.64735 10.4874 8.55666 10.4502 8.46289L3.2915 9.33961Z" fill="#DF3339"/>
<path d="M5.6762 29.053C6.91284 29.0889 8.25989 28.3553 9.12038 27.1649L15.0261 18.9949C15.1559 18.8154 15.2182 18.6121 15.2216 18.4114L8.20865 20.6967C8.21994 21.2265 7.88719 21.7235 7.35873 21.8957C7.25864 21.9283 7.15739 21.9474 7.05697 21.9539L5.6762 29.053Z" fill="#DF3339"/>
<path d="M10.501 32.2973C10.0842 31.1277 10.364 29.6146 11.2283 28.4248L17.1596 20.2588C17.29 20.0793 17.4638 19.9569 17.6533 19.8916L17.6533 27.2945C17.1466 27.4476 16.7776 27.919 16.7776 28.4769C16.7776 28.5826 16.7909 28.6851 16.8158 28.783L10.501 32.2973Z" fill="#D22026"/>
<path d="M30.368 29.082C29.1295 29.118 27.7804 28.3836 26.9187 27.192L21.0041 19.0137C20.8741 18.834 20.8117 18.6305 20.8083 18.4296L27.8318 20.7172C27.8204 21.2476 28.1537 21.7451 28.6829 21.9175C28.7832 21.9501 28.8846 21.9692 28.9852 21.9757L30.368 29.082Z" fill="#D22026"/>
<path d="M33.12 9.34865C32.7714 10.5405 31.6578 11.5997 30.261 12.0531L20.6742 15.1647C20.4635 15.2331 20.2512 15.2297 20.0595 15.1708L24.4003 9.18177C24.9 9.35645 25.4749 9.19248 25.802 8.74117C25.864 8.65569 25.9134 8.56491 25.9507 8.47104L33.12 9.34865Z" fill="#D22026"/>
<path d="M12.5577 7.28957C12.9051 7.76899 12.8585 8.4149 12.4792 8.83895L16.8157 14.8222C16.9524 14.6489 17.0355 14.4289 17.0351 14.1841L17.0191 4.1014C17.0166 2.52978 16.2594 1.05376 15.1131 0.411621L12.4201 7.13006C12.4696 7.17842 12.5157 7.23163 12.5577 7.28957Z" fill="#D22026"/>
<path d="M6.55859 19.5687C7.12081 19.3856 7.71921 19.6296 8.00431 20.1223L15.0209 17.8369C14.8987 17.6531 14.7157 17.5059 14.4833 17.4306L4.9125 14.3301C3.42068 13.8468 1.78631 14.1126 0.822876 15.007L6.36475 19.6506C6.42592 19.6184 6.49064 19.5909 6.55859 19.5687Z" fill="#D22026"/>
<path d="M25.0576 33.0733L19.0158 29.259C18.7905 29.5381 18.4467 29.7164 18.0616 29.7164C17.7091 29.7164 17.3913 29.5671 17.1672 29.3279L10.8389 32.8639C11.1721 33.3936 11.6915 33.8044 12.4119 34.0072C13.7571 34.386 15.2164 34.4587 16.6153 34.2058C17.5405 34.0385 18.4967 34.0385 19.4219 34.2058C20.8245 34.4594 22.288 34.3856 23.6362 34.0042C24.2557 33.8289 24.7264 33.4997 25.0576 33.0733Z" fill="#F04B51"/>
<path d="M35.5569 15.4058L30.0852 20.0096C30.2793 20.3115 30.3415 20.6956 30.2225 21.0642C30.1136 21.4016 29.8743 21.6596 29.579 21.8001L30.9652 28.9496C31.5688 28.7944 32.1175 28.4242 32.5318 27.7974C33.3054 26.627 33.8251 25.2527 34.0184 23.8357C34.1462 22.8986 34.4417 21.9834 34.8856 21.1496C35.5588 19.8855 35.9413 18.4621 35.9974 17.0539C36.0232 16.4068 35.8575 15.8546 35.5569 15.4058Z" fill="#F04B51"/>
<path d="M21.7685 0.0987432L24.4285 6.75836C24.7738 6.66589 25.1561 6.72499 25.4677 6.95281C25.7528 7.16129 25.9227 7.47006 25.9643 7.79612L33.1493 8.67866C33.1892 8.05306 33.0089 7.41356 32.5446 6.8233C31.6775 5.72119 30.5393 4.79914 29.2599 4.1763C28.4137 3.76438 27.6401 3.19876 26.9893 2.51619C26.0027 1.48134 24.7756 0.675389 23.4622 0.186517C22.8586 -0.0381403 22.2855 -0.0502323 21.7685 0.0987432Z" fill="#F04B51"/>
<path d="M14.5945 0.0987433L11.9344 6.75836C11.5892 6.66589 11.2069 6.72499 10.8953 6.95281C10.6102 7.16129 10.4403 7.47006 10.3987 7.79612L3.21363 8.67866C3.17378 8.05306 3.35402 7.41356 3.81839 6.8233C4.68543 5.72119 5.82361 4.79914 7.10305 4.1763C7.94922 3.76438 8.72283 3.19876 9.37361 2.51619C10.3602 1.48134 11.5873 0.675389 12.9008 0.186517C13.5044 -0.0381402 14.0774 -0.0502322 14.5945 0.0987433Z" fill="#F04B51"/>
<path d="M0.443051 15.4058L5.91483 20.0096C5.72075 20.3115 5.65848 20.6956 5.7775 21.0642C5.88641 21.4016 6.12571 21.6596 6.42101 21.8001L5.03477 28.9496C4.43122 28.7944 3.88255 28.4242 3.46821 27.7974C2.69457 26.627 2.17489 25.2527 1.98164 23.8357C1.85383 22.8986 1.55833 21.9834 1.11436 21.1496C0.441246 19.8855 0.058751 18.4621 0.00262392 17.0539C-0.0231685 16.4068 0.142481 15.8546 0.443051 15.4058Z" fill="#F04B51"/>
<defs>
<linearGradient id="paint0_linear" x1="39" y1="12.5" x2="127.885" y2="25.0292" gradientUnits="userSpaceOnUse">
<stop stop-color="#F3F3F3"/>
<stop offset="1" stop-color="#DBD9D9"/>
</linearGradient>
</defs>
</svg>
