<svg width="64" height="68" viewBox="0 0 64 68" fill="none" xmlns="http://www.w3.org/2000/svg">
<rect width="64" height="67.0476" rx="32" fill="#343434"/>
<path d="M33.7449 49.5902C33.7449 48.7326 33.1699 48.0162 32.403 47.8431L32.403 37.1409C32.6959 37.2273 32.9668 37.414 33.1646 37.7009L41.3092 49.5185C42.5787 51.3606 42.9278 53.7343 42.1673 55.4634L33.7204 49.8942C33.7365 49.7954 33.7449 49.6938 33.7449 49.5902Z" fill="#DF3339"/>
<path d="M47.8317 36.6992C47.0555 36.4342 46.2293 36.7873 45.8357 37.5003L36.1483 34.1931C36.3169 33.9271 36.5696 33.7141 36.8905 33.6051L50.1044 29.1184C52.1641 28.419 54.4206 28.8037 55.7508 30.098L48.0994 36.8177C48.0149 36.771 47.9255 36.7312 47.8317 36.6992Z" fill="#DF3339"/>
<path d="M40.0513 18.9301C39.5716 19.6239 39.6359 20.5586 40.1596 21.1722L34.1725 29.8305C33.9838 29.5797 33.869 29.2614 33.8696 28.9071L33.8916 14.3165C33.8951 12.0422 34.9406 9.90628 36.5231 8.97705L40.2413 18.6993C40.1729 18.7693 40.1093 18.8462 40.0513 18.9301Z" fill="#DF3339"/>
<path d="M11.6619 21.9098C12.1432 23.6345 13.6807 25.1673 15.6092 25.8234L28.8452 30.3261C29.1361 30.4251 29.4292 30.4202 29.6939 30.335L23.7008 21.6683C23.0109 21.9211 22.2171 21.6838 21.7655 21.0307C21.6799 20.907 21.6117 20.7756 21.5603 20.6398L11.6619 21.9098Z" fill="#DF3339"/>
<path d="M14.9592 50.4658C16.6691 50.5179 18.5317 49.4552 19.7215 47.7308L27.8875 35.8961C28.0669 35.636 28.1531 35.3415 28.1578 35.0508L18.4609 38.3612C18.4765 39.1287 18.0164 39.8486 17.2857 40.0981C17.1473 40.1453 17.0073 40.1729 16.8684 40.1823L14.9592 50.4658Z" fill="#DF3339"/>
<path d="M21.6312 55.1654C21.0548 53.4711 21.4417 51.2793 22.6367 49.5558L30.8381 37.7268C31.0184 37.4669 31.2586 37.2896 31.5207 37.195L31.5207 47.9185C30.8201 48.1403 30.3099 48.8232 30.3099 49.6313C30.3099 49.7843 30.3282 49.9329 30.3626 50.0747L21.6312 55.1654Z" fill="#D22026"/>
<path d="M49.1015 50.5078C47.389 50.5599 45.5237 49.4962 44.3321 47.77L36.154 35.9233C35.9742 35.663 35.8879 35.3682 35.8832 35.0772L45.5946 38.3909C45.579 39.1592 46.0398 39.8799 46.7716 40.1296C46.9102 40.1769 47.0504 40.2045 47.1895 40.2139L49.1015 50.5078Z" fill="#D22026"/>
<path d="M52.9068 21.9229C52.4248 23.6494 50.885 25.1837 48.9536 25.8404L35.6978 30.3477C35.4065 30.4468 35.1129 30.4419 34.8479 30.3567L40.8498 21.6811C41.5408 21.9342 42.3358 21.6966 42.7881 21.0429C42.8738 20.9191 42.9421 20.7876 42.9936 20.6516L52.9068 21.9229Z" fill="#D22026"/>
<path d="M24.4749 18.9402C24.9554 19.6346 24.8909 20.5703 24.3664 21.1845L30.3626 29.8516C30.5515 29.6006 30.6664 29.2819 30.6659 28.9273L30.6438 14.3219C30.6404 12.0453 29.5933 9.90722 28.0084 8.97705L24.2847 18.7091C24.3531 18.7792 24.4168 18.8562 24.4749 18.9402Z" fill="#D22026"/>
<path d="M16.1799 36.7273C16.9573 36.462 17.7847 36.8155 18.1789 37.5292L27.8808 34.2186C27.7119 33.9523 27.4588 33.7391 27.1375 33.63L13.9038 29.1388C11.841 28.4387 9.58118 28.8238 8.24902 30.1194L15.9119 36.8458C15.9964 36.7992 16.0859 36.7593 16.1799 36.7273Z" fill="#D22026"/>
<path d="M41.7587 56.2896L33.4046 50.7643C33.093 51.1685 32.6177 51.4268 32.0851 51.4268C31.5978 51.4268 31.1584 51.2105 30.8485 50.8641L22.0983 55.9862C22.5589 56.7535 23.277 57.3485 24.2732 57.6424C26.1332 58.191 28.1511 58.2964 30.0853 57.93C31.3646 57.6877 32.6868 57.6877 33.966 57.93C35.9055 58.2973 37.929 58.1904 39.7932 57.6379C40.6498 57.384 41.3006 56.9072 41.7587 56.2896Z" fill="#F04B51"/>
<path d="M56.2763 30.697L48.7103 37.366C48.9787 37.8033 49.0648 38.3597 48.9002 38.8937C48.7496 39.3823 48.4187 39.756 48.0104 39.9597L49.9272 50.316C50.7618 50.0912 51.5204 49.5551 52.0933 48.6471C53.163 46.9517 53.8816 44.961 54.1488 42.9084C54.3255 41.5508 54.7341 40.2251 55.348 39.0174C56.2788 37.1863 56.8076 35.1243 56.8852 33.0844C56.9209 32.1471 56.6919 31.3472 56.2763 30.697Z" fill="#F04B51"/>
<path d="M37.2107 8.52389L40.8888 18.1707C41.3662 18.0368 41.8948 18.1224 42.3256 18.4524C42.7199 18.7544 42.9548 19.2017 43.0123 19.674L52.9472 20.9524C53.0023 20.0462 52.7531 19.1198 52.111 18.2648C50.9121 16.6683 49.3383 15.3327 47.5692 14.4305C46.3992 13.8338 45.3295 13.0145 44.4297 12.0257C43.0654 10.5267 41.3688 9.3592 39.5526 8.65104C38.718 8.32561 37.9256 8.30809 37.2107 8.52389Z" fill="#F04B51"/>
<path d="M27.2911 8.52389L23.613 18.1707C23.1356 18.0368 22.607 18.1224 22.1762 18.4524C21.7819 18.7544 21.547 19.2017 21.4895 19.674L11.5546 20.9524C11.4995 20.0462 11.7487 19.1198 12.3908 18.2648C13.5897 16.6683 15.1635 15.3327 16.9326 14.4305C18.1026 13.8338 19.1723 13.0145 20.0721 12.0257C21.4364 10.5267 23.133 9.3592 24.9492 8.65104C25.7838 8.32561 26.5762 8.3081 27.2911 8.52389Z" fill="#F04B51"/>
<path d="M7.7237 30.697L15.2896 37.366C15.0213 37.8033 14.9351 38.3597 15.0997 38.8937C15.2503 39.3823 15.5812 39.756 15.9895 39.9597L14.0727 50.316C13.2382 50.0912 12.4795 49.5551 11.9066 48.6471C10.8369 46.9517 10.1183 44.961 9.85112 42.9084C9.6744 41.5508 9.26582 40.2251 8.65192 39.0174C7.7212 37.1863 7.19232 35.1243 7.11471 33.0844C7.07905 32.1471 7.30809 31.3472 7.7237 30.697Z" fill="#F04B51"/>
</svg>
