<svg width="26" height="24" viewBox="0 0 26 24" fill="none" xmlns="http://www.w3.org/2000/svg">
<path d="M13.4567 19.8742C13.4567 19.4607 13.1662 19.1151 12.7787 19.0317L12.7787 13.8703C12.9267 13.9119 13.0636 14.002 13.1635 14.1404L17.2784 19.8397C17.9199 20.7281 18.0962 21.8728 17.712 22.7068L13.4443 20.0209C13.4524 19.9732 13.4567 19.9242 13.4567 19.8742Z" fill="#DF3339"/>
<path d="M20.5739 13.6573C20.1817 13.5295 19.7643 13.6998 19.5654 14.0436L14.6709 12.4486C14.7562 12.3203 14.8838 12.2176 15.0459 12.1651L21.7221 10.0012C22.7628 9.66396 23.9028 9.84948 24.5749 10.4737L20.7091 13.7144C20.6664 13.6919 20.6213 13.6727 20.5739 13.6573Z" fill="#DF3339"/>
<path d="M16.6429 5.08769C16.4005 5.42228 16.433 5.87306 16.6976 6.169L13.6727 10.3447C13.5774 10.2237 13.5194 10.0702 13.5197 9.89933L13.5308 2.86268C13.5325 1.76585 14.0608 0.735742 14.8603 0.287598L16.7389 4.97637C16.7044 5.01012 16.6722 5.04725 16.6429 5.08769Z" fill="#DF3339"/>
<path d="M2.29944 6.52472C2.54261 7.35651 3.31941 8.09574 4.29379 8.41215L10.9811 10.5837C11.1281 10.6314 11.2762 10.6291 11.4099 10.588L8.38201 6.40825C8.03344 6.53016 7.63235 6.41572 7.40419 6.10076C7.36097 6.0411 7.32649 5.97775 7.30051 5.91224L2.29944 6.52472Z" fill="#DF3339"/>
<path d="M3.96539 20.2966C4.82932 20.3216 5.77036 19.8091 6.37151 18.9775L10.4973 13.2699C10.5879 13.1445 10.6315 13.0025 10.6338 12.8623L5.73457 14.4588C5.74246 14.8289 5.51 15.1761 5.14082 15.2964C5.07089 15.3192 5.00016 15.3325 4.93001 15.3371L3.96539 20.2966Z" fill="#DF3339"/>
<path d="M7.33601 22.563C7.04482 21.7459 7.24031 20.6889 7.84406 19.8577L11.9877 14.1529C12.0788 14.0275 12.2002 13.942 12.3326 13.8964L12.3326 19.068C11.9787 19.175 11.7209 19.5044 11.7209 19.8941C11.7209 19.9679 11.7301 20.0395 11.7475 20.1079L7.33601 22.563Z" fill="#D22026"/>
<path d="M21.2151 20.3168C20.3499 20.3419 19.4075 19.8289 18.8054 18.9964L14.6735 13.2831C14.5827 13.1575 14.5391 13.0154 14.5367 12.875L19.4433 14.4731C19.4354 14.8437 19.6682 15.1912 20.0379 15.3116C20.108 15.3345 20.1788 15.3478 20.2491 15.3523L21.2151 20.3168Z" fill="#D22026"/>
<path d="M23.1377 6.53103C22.8942 7.36367 22.1162 8.10365 21.1404 8.42038L14.443 10.5941C14.2959 10.6419 14.1475 10.6395 14.0136 10.5984L17.0461 6.41445C17.3951 6.53648 17.7968 6.42193 18.0253 6.10664C18.0686 6.04692 18.1031 5.98351 18.1292 5.91793L23.1377 6.53103Z" fill="#D22026"/>
<path d="M8.77279 5.09255C9.01553 5.42747 8.98298 5.87871 8.71799 6.17496L11.7475 10.3548C11.8429 10.2338 11.901 10.0801 11.9007 9.90906L11.8896 2.86529C11.8878 1.76735 11.3588 0.736196 10.558 0.287598L8.67669 4.98112C8.71126 5.0149 8.74345 5.05207 8.77279 5.09255Z" fill="#D22026"/>
<path d="M4.58181 13.6708C4.97458 13.5429 5.39263 13.7134 5.5918 14.0575L10.4936 12.461C10.4082 12.3325 10.2804 12.2297 10.118 12.1771L3.43185 10.0111C2.38966 9.67345 1.24789 9.85916 0.574829 10.484L4.4464 13.728C4.48913 13.7055 4.53435 13.6863 4.58181 13.6708Z" fill="#D22026"/>
<path d="M17.5053 23.1051L13.2845 20.4404C13.1271 20.6354 12.8869 20.7599 12.6179 20.7599C12.3717 20.7599 12.1496 20.6556 11.9931 20.4886L7.57212 22.9588C7.80487 23.3289 8.16768 23.6158 8.67099 23.7575C9.61073 24.0221 10.6302 24.0729 11.6075 23.8963C12.2538 23.7794 12.9219 23.7794 13.5682 23.8963C14.5481 24.0734 15.5704 24.0219 16.5123 23.7554C16.9451 23.6329 17.2739 23.403 17.5053 23.1051Z" fill="#F04B51"/>
<path d="M24.8402 10.7625L21.0176 13.9788C21.1532 14.1897 21.1967 14.458 21.1135 14.7155C21.0374 14.9512 20.8703 15.1314 20.664 15.2296L21.6324 20.2242C22.054 20.1158 22.4373 19.8573 22.7268 19.4193C23.2673 18.6017 23.6303 17.6416 23.7653 16.6517C23.8546 15.997 24.061 15.3577 24.3712 14.7752C24.8414 13.8921 25.1087 12.8977 25.1479 11.9139C25.1659 11.4618 25.0502 11.0761 24.8402 10.7625Z" fill="#F04B51"/>
<path d="M15.2075 0.0689823L17.0658 4.72141C17.3071 4.65681 17.5741 4.6981 17.7918 4.85726C17.991 5.0029 18.1097 5.2186 18.1387 5.44639L23.1582 6.06294C23.1861 5.62589 23.0601 5.17913 22.7357 4.76677C22.13 3.99684 21.3349 3.35269 20.4411 2.91758C19.8499 2.62981 19.3095 2.23466 18.8548 1.75782C18.1656 1.03487 17.3083 0.471829 16.3907 0.130301C15.9691 -0.0266449 15.5687 -0.0350924 15.2075 0.0689823Z" fill="#F04B51"/>
<path d="M10.1958 0.0689823L8.33743 4.72141C8.09621 4.65681 7.82917 4.6981 7.61149 4.85726C7.41229 5.0029 7.2936 5.2186 7.26454 5.44639L2.24505 6.06294C2.21721 5.62589 2.34313 5.17913 2.66754 4.76678C3.27325 3.99684 4.06839 3.35269 4.96221 2.91758C5.55335 2.62981 6.0938 2.23466 6.54843 1.75782C7.2377 1.03487 8.09493 0.471829 9.01253 0.130301C9.43421 -0.0266448 9.83454 -0.0350924 10.1958 0.0689823Z" fill="#F04B51"/>
<path d="M0.309517 10.7625L4.13212 13.9788C3.99653 14.1897 3.95303 14.458 4.03617 14.7155C4.11226 14.9512 4.27944 15.1314 4.48573 15.2296L3.5173 20.2242C3.09566 20.1158 2.71236 19.8573 2.4229 19.4193C1.88244 18.6017 1.51938 17.6416 1.38438 16.6517C1.29509 15.997 1.08866 15.3577 0.778493 14.7752C0.308256 13.8921 0.0410436 12.8977 0.00183308 11.9139C-0.0161856 11.4618 0.0995375 11.0761 0.309517 10.7625Z" fill="#F04B51"/>
</svg>
