<svg width="61" height="60" viewBox="0 0 61 60" fill="none" xmlns="http://www.w3.org/2000/svg">
<rect x="0.220337" width="60" height="60" rx="30" fill="url(#paint0_linear)"/>
<path d="M25.696 30.4679C25.696 30.143 25.8284 29.8314 26.064 29.6017C26.2996 29.372 26.6192 29.2429 26.9524 29.2429H31.6187C31.9519 29.2429 32.2714 29.372 32.507 29.6017C32.7426 29.8314 32.875 30.143 32.875 30.4679C32.875 30.7928 32.7426 31.1044 32.507 31.3341C32.2714 31.5638 31.9519 31.6929 31.6187 31.6929H26.9524C26.6192 31.6929 26.2996 31.5638 26.064 31.3341C25.8284 31.1044 25.696 30.7928 25.696 30.4679ZM26.9524 23.9929H33.4134C33.5784 23.9929 33.7418 24.0246 33.8942 24.0862C34.0466 24.1477 34.1851 24.238 34.3018 24.3517C34.4184 24.4655 34.511 24.6005 34.5741 24.7491C34.6372 24.8977 34.6697 25.057 34.6697 25.2179C34.6697 25.3788 34.6372 25.5381 34.5741 25.6867C34.511 25.8353 34.4184 25.9704 34.3018 26.0841C34.1851 26.1979 34.0466 26.2881 33.8942 26.3497C33.7418 26.4112 33.5784 26.4429 33.4134 26.4429H26.9524C26.7874 26.4429 26.624 26.4112 26.4716 26.3497C26.3192 26.2881 26.1807 26.1979 26.064 26.0841C25.9473 25.9704 25.8548 25.8353 25.7917 25.6867C25.7285 25.5381 25.696 25.3788 25.696 25.2179C25.696 25.057 25.7285 24.8977 25.7917 24.7491C25.8548 24.6005 25.9473 24.4655 26.064 24.3517C26.1807 24.238 26.3192 24.1477 26.4716 24.0862C26.624 24.0246 26.7874 23.9929 26.9524 23.9929ZM42.1951 29.0819C42.1235 29.0323 42.0362 29.009 41.9488 29.0164C41.8613 29.0238 41.7794 29.0613 41.7177 29.1222L33.2411 37.3874C33.2098 37.4177 33.1697 37.4378 33.1262 37.4452L31.3746 37.7077C31.3421 37.7123 31.3089 37.7095 31.2776 37.6995C31.2464 37.6895 31.218 37.6725 31.1947 37.6499C31.1713 37.6273 31.1537 37.5998 31.1432 37.5694C31.1327 37.539 31.1296 37.5067 31.1341 37.4749L31.4069 35.7669C31.413 35.7245 31.4331 35.6851 31.4643 35.6549L39.4994 27.8202C39.5548 27.7658 39.5982 27.701 39.6269 27.6297C39.6557 27.5583 39.669 27.482 39.6663 27.4054C39.5762 25.1092 38.5623 22.94 36.844 21.3674C35.1258 19.7947 32.8414 18.9452 30.4855 19.0027C28.1297 19.0603 25.8918 20.0202 24.2564 21.6747C22.621 23.3292 21.7197 25.5452 21.7476 27.8429C21.7476 27.8849 21.7602 27.9234 21.762 27.9654C20.2027 28.2719 18.8206 29.1437 17.8946 30.4048C16.9686 31.6659 16.5677 33.2226 16.7726 34.7607C17.1728 37.8652 20.0713 40.0929 23.2803 40.0929H38.1156C41.4197 40.0929 44.3954 37.7427 44.6933 34.5349C44.7928 33.4932 44.6152 32.4442 44.1775 31.489C43.7399 30.5338 43.0571 29.7047 42.1951 29.0819Z" fill="white"/>
<defs>
<linearGradient id="paint0_linear" x1="-29.7797" y1="30" x2="30.2203" y2="90" gradientUnits="userSpaceOnUse">
<stop stop-color="#FF797E"/>
<stop offset="0.53125" stop-color="#FF4D53"/>
<stop offset="1" stop-color="#CA1A20"/>
</linearGradient>
</defs>
</svg>
