<svg width="61" height="60" viewBox="0 0 61 60" fill="none" xmlns="http://www.w3.org/2000/svg">
<rect x="0.720337" width="60" height="60" rx="30" fill="url(#paint0_linear)"/>
<path d="M31.808 26.3597C31.458 26.7119 31.2615 27.1882 31.2615 27.6847C31.2615 28.1813 31.458 28.6576 31.808 29.0098C32.3199 29.524 32.6073 30.22 32.6073 30.9456C32.6073 31.6712 32.3199 32.3672 31.808 32.8814L26.2824 38.4634C26.0352 38.7467 25.7324 38.9762 25.3927 39.1376C25.0531 39.299 24.6839 39.3888 24.3081 39.4016C23.9323 39.4143 23.5579 39.3497 23.2081 39.2117C22.8583 39.0738 22.5406 38.8654 22.2747 38.5995C22.0088 38.3336 21.8004 38.0159 21.6625 37.6661C21.5245 37.3163 21.4599 36.9419 21.4726 36.5661C21.4854 36.1903 21.5752 35.8211 21.7366 35.4815C21.898 35.1418 22.1275 34.839 22.4108 34.5918L23.6512 33.2573C24.0026 32.9034 24.1991 32.4244 24.1973 31.9257C24.1955 31.4269 23.9957 30.9493 23.6418 30.5979C23.2879 30.2465 22.8089 30.0501 22.3101 30.0518C21.8114 30.0536 21.3338 30.2534 20.9824 30.6073L19.7419 31.9981C18.5948 33.2311 17.9707 34.861 18.0011 36.5449C18.0314 38.2287 18.7138 39.8351 19.9047 41.0259C21.0955 42.2168 22.7019 42.8992 24.3857 42.9295C26.0696 42.9599 27.6995 42.3358 28.9325 41.1887L34.4769 35.6443C35.6946 34.425 36.3786 32.7722 36.3786 31.049C36.3786 29.3258 35.6946 27.673 34.4769 26.4537C34.3084 26.2713 34.1055 26.124 33.8799 26.0204C33.6542 25.9168 33.4102 25.859 33.1621 25.8503C32.9139 25.8415 32.6665 25.8821 32.4341 25.9695C32.2017 26.057 31.9889 26.1896 31.808 26.3597Z" fill="white"/>
<path d="M42.1075 18.8419C40.8697 17.6597 39.2238 17 37.5122 17C35.8005 17 34.1547 17.6597 32.9169 18.8419L27.4101 24.3111C26.1924 25.5304 25.5084 27.1832 25.5084 28.9064C25.5084 30.6296 26.1924 32.2824 27.4101 33.5016C27.5841 33.6769 27.7909 33.8161 28.0187 33.9114C28.2466 34.0068 28.4909 34.0563 28.7379 34.0571C28.9848 34.058 29.2295 34.0102 29.458 33.9165C29.6865 33.8228 29.8943 33.6851 30.0695 33.511C30.2448 33.337 30.384 33.1302 30.4793 32.9024C30.5746 32.6746 30.6241 32.4302 30.625 32.1833C30.6259 31.9363 30.5781 31.6916 30.4844 31.4631C30.3907 31.2346 30.2529 31.0269 30.0789 30.8516C29.5671 30.3374 29.2797 29.6413 29.2797 28.9158C29.2797 28.1902 29.5671 27.4942 30.0789 26.9799L35.6233 21.4355C36.1445 20.937 36.8379 20.6587 37.5592 20.6587C38.2804 20.6587 38.9738 20.937 39.495 21.4355C40.0069 21.9498 40.2943 22.6458 40.2943 23.3714C40.2943 24.0969 40.0069 24.793 39.495 25.3072L38.1606 26.6416C37.9854 26.8156 37.8461 27.0224 37.7508 27.2503C37.6555 27.4781 37.606 27.7224 37.6051 27.9694C37.6042 28.2163 37.652 28.4611 37.7457 28.6895C37.8394 28.918 37.9772 29.1258 38.1512 29.3011C38.3252 29.4763 38.532 29.6155 38.7598 29.7109C38.9877 29.8062 39.232 29.8557 39.479 29.8565C39.7259 29.8574 39.9706 29.8096 40.1991 29.7159C40.4276 29.6222 40.6354 29.4845 40.8106 29.3105L42.1451 27.976C43.3406 26.7542 44.007 25.1107 44 23.4012C43.9929 21.6918 43.3131 20.0538 42.1075 18.8419Z" fill="white"/>
<defs>
<linearGradient id="paint0_linear" x1="92.2203" y1="30" x2="31.0203" y2="-30.6" gradientUnits="userSpaceOnUse">
<stop stop-color="#6758F3"/>
<stop offset="1" stop-color="#E062F5"/>
</linearGradient>
</defs>
</svg>
