<svg width="24" height="24" viewBox="0 0 24 24" fill="none" xmlns="http://www.w3.org/2000/svg">
<path d="M12.298 23.8141L11.9982 23.988L11.6985 23.8141L1.60803 17.9925V5.9955L1.62602 5.98351L1.9138 5.81564H1.9198L11.9922 0L22.0587 5.80964L22.0647 5.81564L22.3585 5.98351L22.3765 5.9955V17.9865L12.298 23.8141ZM21.1834 7.02073V6.69698L20.8656 6.51711L20.8416 6.50512L11.9982 1.39096L3.14888 6.49313L3.1129 6.51112L2.80713 6.68499V17.285L11.6925 22.4172L11.9922 22.5911L12.292 22.4172L21.1774 17.285V7.02073H21.1834Z" fill="url(#paint0_linear)"/>
<path d="M12.6038 12.3568L13.2033 12.009L18.887 8.7235V15.9721L12.6038 19.5993V13.0523V12.3568ZM11.4047 12.3568V19.6113L5.10938 15.9721V8.71151L10.8051 12.009L11.4047 12.3568ZM12.0042 11.3196L11.4047 10.9718L5.70293 7.67429L11.9982 4.04102L18.2995 7.68029L12.6038 10.9718L12.0042 11.3196Z" fill="url(#paint1_linear)"/>
<defs>
<linearGradient id="paint0_linear" x1="11.9922" y1="0" x2="11.9922" y2="23.988" gradientUnits="userSpaceOnUse">
<stop stop-color="#FF6A70"/>
<stop offset="1" stop-color="#E23137"/>
</linearGradient>
<linearGradient id="paint1_linear" x1="11.9982" y1="4.04102" x2="11.9982" y2="19.6113" gradientUnits="userSpaceOnUse">
<stop stop-color="#FF6A70"/>
<stop offset="1" stop-color="#E23137"/>
</linearGradient>
</defs>
</svg>
