<svg width="61" height="60" viewBox="0 0 61 60" fill="none" xmlns="http://www.w3.org/2000/svg">
<rect x="0.720337" width="60" height="60" rx="30" fill="url(#paint0_linear)"/>
<path d="M23.1408 27.4437C22.7137 28.4896 22.4633 29.6532 22.4633 30.8169C22.4633 31.8038 22.64 32.776 22.9493 33.645C23.5091 32.7318 24.2456 31.686 25.1588 30.5812C25.041 30.3308 24.9084 30.0215 24.9084 29.7269C24.9084 29.4765 24.9673 29.2997 25.0263 29.1082C24.1867 28.4748 23.568 27.9298 23.1408 27.4437ZM26.3372 38.1819C26.6466 37.9315 26.897 37.6958 27.1916 37.5043C29.7104 35.6041 31.9788 34.4994 33.7611 33.8807C33.7611 33.7629 33.7022 33.6303 33.7022 33.5125V33.321C33.0836 33.1295 32.406 32.9527 31.802 32.7023C30.2112 32.1426 28.8561 31.4797 27.6924 30.8611C27.3831 31.1704 26.9559 31.3472 26.5287 31.3472C26.2783 31.3472 26.1016 31.2883 25.9101 31.2293C24.7464 32.5845 23.951 33.866 23.3912 34.8529C24.1277 36.2228 25.1146 37.3128 26.3372 38.1819ZM32.1703 31.8038C32.8479 32.0542 33.5254 32.231 34.203 32.4225C34.3798 32.2457 34.5713 32.1131 34.7628 32.0542C34.5713 31.3766 34.3356 30.6991 34.0263 30.0215C33.5991 29.0346 33.113 28.1213 32.6122 27.3259C32.4354 27.3848 32.3029 27.3848 32.1261 27.3848C31.7579 27.3848 31.3896 27.267 31.0803 27.0166C30.4027 27.4437 29.7251 27.8709 28.9886 28.4306L28.0754 29.1671C28.1343 29.3439 28.1932 29.5943 28.1932 29.7858V30.0362C29.2832 30.5665 30.6384 31.2441 32.1703 31.8038ZM40.7579 30.8169C40.7579 28.2392 39.6531 25.8529 37.8119 24.2473C36.8986 24.4241 35.4845 24.8071 33.7611 25.5288V25.7056C33.7611 26.0739 33.6433 26.3832 33.4518 26.6925C34.0115 27.5468 34.4976 28.5338 34.9837 29.6385C35.293 30.4339 35.6024 31.2293 35.8381 31.9658C36.3241 32.0837 36.7513 32.4519 37.0017 32.9527C37.37 33.0117 37.7382 33.0117 38.1065 33.0117C39.0197 33.0706 39.8888 33.0117 40.5664 33.0117C40.64 32.231 40.7579 31.5534 40.7579 30.8169ZM31.6106 24.1295C31.7873 24.0706 31.9199 24.0706 32.0966 24.0706C32.5827 24.0706 33.0099 24.2473 33.3192 24.6303C34.6744 24.0117 35.8381 23.6434 36.7513 23.4077C35.2783 22.4208 33.496 21.8169 31.5958 21.8169C30.9182 21.8169 30.1818 21.8758 29.5631 22.0673C30.1376 22.5829 30.8741 23.2604 31.6106 24.1295ZM35.7939 38.7858C35.8528 37.8725 35.7939 36.6352 35.4845 35.1033H35.3667C34.9395 35.1033 34.5713 34.9855 34.3209 34.7351C32.5975 35.3537 30.3291 36.3848 27.8691 38.2997C27.6924 38.4175 27.5009 38.609 27.2505 38.7269C28.5467 39.4045 30.0197 39.7727 31.5516 39.7727C33.0836 39.8316 34.5565 39.4634 35.7939 38.7858ZM23.6417 26.4568C24.0688 26.9429 24.7464 27.6205 25.7333 28.357C25.9837 28.2392 26.293 28.1066 26.5876 28.1066C26.897 28.1066 27.2063 28.1655 27.442 28.357L28.3552 27.6205C29.0917 27.0608 29.8282 26.5747 30.5058 26.1475C30.4469 26.0297 30.4469 25.8971 30.4469 25.7203C30.4469 25.3521 30.5647 25.0428 30.7562 24.7334C29.843 23.7023 29.0328 22.8922 28.37 22.4061C26.3372 23.1426 24.6875 24.6156 23.6417 26.4568ZM37.8708 33.9986C37.694 33.9986 37.3847 33.9986 36.9575 34.1164C36.8397 34.3668 36.7071 34.5436 36.5304 34.7351C36.7808 36.0902 36.8986 37.2539 36.8986 38.1671C38.3716 37.1213 39.5353 35.7072 40.2128 33.9986H37.8708Z" fill="white"/>
<path d="M35.7938 18.2962C35.5434 17.5597 34.8805 17 34.0115 17C33.0245 17 32.1702 17.7954 32.1702 18.7823C32.1702 19.7692 32.9656 20.5646 34.0115 20.5646C34.4975 20.5646 34.9984 20.3879 35.3077 20.0049C39.9034 21.5957 43.1588 25.838 43.1588 30.802C43.1588 32.0245 42.982 33.2029 42.599 34.3077L44.1899 35.2209C44.6759 33.8658 44.9853 32.3339 44.9853 30.802C45 24.9836 41.126 20.0196 35.7938 18.2962ZM41.0082 37.0769C40.0213 37.0769 39.1669 37.8723 39.1669 38.8592C39.1669 39.0507 39.2259 39.1686 39.2259 39.3453C37.1931 41.1277 34.4975 42.2324 31.5516 42.2324C28.1784 42.2324 25.0998 40.7594 22.964 38.491L21.3142 39.4043C23.7741 42.2324 27.4566 44 31.5074 44C34.9394 44 38.1358 42.7038 40.4632 40.5679C40.581 40.6268 40.7136 40.6268 40.8903 40.6268C41.8772 40.6268 42.7316 39.8314 42.7316 38.8445C42.7316 37.8576 41.9951 37.0769 41.0082 37.0769ZM20.2684 33.0262C20.1506 32.2897 20.018 31.6121 20.018 30.8167C20.018 25.3519 23.9509 20.8151 29.1653 19.7103V17.8691C22.9051 18.9738 18.1768 24.365 18.1768 30.8167C18.1768 31.7299 18.2946 32.6579 18.4861 33.5123C18.1768 33.8216 18 34.2488 18 34.7349C18 35.7218 18.7954 36.5172 19.8412 36.5172C20.8282 36.5172 21.6825 35.7218 21.6825 34.7349C21.6678 33.8805 21.0638 33.2029 20.2684 33.0262Z" fill="white"/>
<defs>
<linearGradient id="paint0_linear" x1="-27.8259" y1="30.4846" x2="31.2049" y2="89.5154" gradientUnits="userSpaceOnUse">
<stop stop-color="#6ED74D"/>
<stop offset="1" stop-color="#00D015"/>
</linearGradient>
</defs>
</svg>
