<svg width="24" height="24" viewBox="0 0 24 24" fill="none" xmlns="http://www.w3.org/2000/svg">
<path d="M20 14.5C20 17.5376 17.5376 20 14.5 20C11.4624 20 9 17.5376 9 14.5C9 11.4624 11.4624 9 14.5 9C17.5376 9 20 11.4624 20 14.5Z" fill="url(#paint0_linear)"/>
<path fill-rule="evenodd" clip-rule="evenodd" d="M19.5 5H17V3H21.5V7.5H19.5V5ZM11.3191 7.37571C10.6382 6.47167 9.53648 5.91633 8.32581 5.98377C6.39581 6.09128 4.91838 7.74301 5.02589 9.67301C5.09333 10.8837 5.76759 11.9169 6.74166 12.4932C7.21698 12.7744 7.37435 13.3877 7.09314 13.863C6.81192 14.3383 6.19862 14.4957 5.7233 14.2145C4.19933 13.3129 3.1351 11.6892 3.02899 9.78425C2.86005 6.75138 5.18171 4.15581 8.21458 3.98687C10.1195 3.88075 11.8514 4.75807 12.9166 6.17247C13.2489 6.61363 13.1606 7.24061 12.7195 7.57287C12.2783 7.90514 11.6513 7.81686 11.3191 7.37571ZM14.5 10C12.0147 10 10 12.0147 10 14.5C10 16.9853 12.0147 19 14.5 19C16.9853 19 19 16.9853 19 14.5C19 12.0147 16.9853 10 14.5 10ZM8 14.5C8 10.9101 10.9101 8 14.5 8C18.0899 8 21 10.9101 21 14.5C21 18.0899 18.0899 21 14.5 21C10.9101 21 8 18.0899 8 14.5ZM4 19.5V17H2V21.5H6.5V19.5H4Z" fill="url(#paint1_linear)"/>
<defs>
<linearGradient id="paint0_linear" x1="11.75" y1="4" x2="11.75" y2="20.5" gradientUnits="userSpaceOnUse">
<stop stop-color="#FF6C71"/>
<stop offset="1" stop-color="#E02F35"/>
</linearGradient>
<linearGradient id="paint1_linear" x1="11.75" y1="3" x2="11.75" y2="21.5" gradientUnits="userSpaceOnUse">
<stop stop-color="#FF6C71"/>
<stop offset="1" stop-color="#E02F35"/>
</linearGradient>
</defs>
</svg>
