<svg width="24" height="24" viewBox="0 0 24 24" fill="none" xmlns="http://www.w3.org/2000/svg">
<path fill-rule="evenodd" clip-rule="evenodd" d="M15.6 8.39993C15.6 6.41453 13.9854 4.79993 12 4.79993C10.0146 4.79993 8.40001 6.41453 8.40001 8.39993C8.40001 10.3853 10.0146 11.9999 12 11.9999C13.9854 11.9999 15.6 10.3853 15.6 8.39993ZM21 21H16.5V19.2H19.0056C18.2622 15.7926 15.4065 13.8 12 13.8C8.5935 13.8 5.7378 15.7926 4.9944 19.2H7.5V21H3C3 16.9005 5.3247 13.8432 8.6178 12.6057C7.3884 11.6166 6.6 10.101 6.6 8.4C6.6 5.4174 9.0174 3 12 3C14.9826 3 17.4 5.4174 17.4 8.4C17.4 10.101 16.6116 11.6166 15.3822 12.6057C18.6753 13.8432 21 16.9005 21 21ZM14.1726 16.281L15.4452 17.5545L12 20.9997L9.45481 18.4545L10.7274 17.181L12 18.4545L14.1726 16.281Z" fill="#E0E0E0"/>
</svg>
